<mxfile host="app.diagrams.net" agent="Mozilla/5.0 (Windows NT 10.0; Win64; x64) AppleWebKit/537.36 (KHTML, like Gecko) Chrome/136.0.0.0 Safari/537.36" version="27.0.6">
  <diagram name="Page-1" id="iQRqEqvvRHqvoTdJ8gV3">
    <mxGraphModel grid="1" page="1" gridSize="10" guides="1" tooltips="1" connect="1" arrows="1" fold="1" pageScale="1" pageWidth="827" pageHeight="1169" math="0" shadow="0">
      <root>
        <mxCell id="0" />
        <mxCell id="1" parent="0" />
        <mxCell id="kLhIFlbgZyPSCjnqe6_J-4" value="" style="ellipse;whiteSpace=wrap;html=1;" vertex="1" parent="1">
          <mxGeometry x="55" y="65" width="120" height="30" as="geometry" />
        </mxCell>
        <mxCell id="kLhIFlbgZyPSCjnqe6_J-8" style="edgeStyle=orthogonalEdgeStyle;rounded=0;orthogonalLoop=1;jettySize=auto;html=1;exitX=0.5;exitY=1;exitDx=0;exitDy=0;entryX=0.5;entryY=0;entryDx=0;entryDy=0;" edge="1" parent="1" source="kLhIFlbgZyPSCjnqe6_J-5" target="kLhIFlbgZyPSCjnqe6_J-7">
          <mxGeometry relative="1" as="geometry" />
        </mxCell>
        <mxCell id="kLhIFlbgZyPSCjnqe6_J-5" value="distance_sonar()" style="text;html=1;align=center;verticalAlign=middle;whiteSpace=wrap;rounded=0;" vertex="1" parent="1">
          <mxGeometry x="85" y="65" width="60" height="30" as="geometry" />
        </mxCell>
        <mxCell id="kLhIFlbgZyPSCjnqe6_J-11" style="edgeStyle=orthogonalEdgeStyle;rounded=0;orthogonalLoop=1;jettySize=auto;html=1;exitX=0.5;exitY=1;exitDx=0;exitDy=0;entryX=0.5;entryY=0;entryDx=0;entryDy=0;" edge="1" parent="1" source="kLhIFlbgZyPSCjnqe6_J-6" target="kLhIFlbgZyPSCjnqe6_J-10">
          <mxGeometry relative="1" as="geometry" />
        </mxCell>
        <mxCell id="kLhIFlbgZyPSCjnqe6_J-6" value="" style="rounded=0;whiteSpace=wrap;html=1;" vertex="1" parent="1">
          <mxGeometry x="40" y="135" width="150" height="40" as="geometry" />
        </mxCell>
        <mxCell id="kLhIFlbgZyPSCjnqe6_J-7" value="trig_sonar = 1" style="text;html=1;align=center;verticalAlign=middle;whiteSpace=wrap;rounded=0;" vertex="1" parent="1">
          <mxGeometry x="47" y="135" width="136" height="35" as="geometry" />
        </mxCell>
        <mxCell id="kLhIFlbgZyPSCjnqe6_J-9" value="" style="rounded=1;whiteSpace=wrap;html=1;" vertex="1" parent="1">
          <mxGeometry x="90.5" y="205" width="49" height="20" as="geometry" />
        </mxCell>
        <mxCell id="kLhIFlbgZyPSCjnqe6_J-10" value="End" style="text;html=1;align=center;verticalAlign=middle;whiteSpace=wrap;rounded=0;" vertex="1" parent="1">
          <mxGeometry x="85" y="205" width="60" height="25" as="geometry" />
        </mxCell>
        <mxCell id="kLhIFlbgZyPSCjnqe6_J-12" value="" style="ellipse;whiteSpace=wrap;html=1;" vertex="1" parent="1">
          <mxGeometry x="385" y="10" width="120" height="30" as="geometry" />
        </mxCell>
        <mxCell id="kLhIFlbgZyPSCjnqe6_J-13" style="edgeStyle=orthogonalEdgeStyle;rounded=0;orthogonalLoop=1;jettySize=auto;html=1;exitX=0.5;exitY=1;exitDx=0;exitDy=0;entryX=0.5;entryY=0;entryDx=0;entryDy=0;" edge="1" parent="1" source="kLhIFlbgZyPSCjnqe6_J-14" target="kLhIFlbgZyPSCjnqe6_J-17">
          <mxGeometry relative="1" as="geometry" />
        </mxCell>
        <mxCell id="kLhIFlbgZyPSCjnqe6_J-14" value="rotation_sonar()" style="text;html=1;align=center;verticalAlign=middle;whiteSpace=wrap;rounded=0;" vertex="1" parent="1">
          <mxGeometry x="415" y="10" width="60" height="30" as="geometry" />
        </mxCell>
        <mxCell id="kLhIFlbgZyPSCjnqe6_J-15" style="edgeStyle=orthogonalEdgeStyle;rounded=0;orthogonalLoop=1;jettySize=auto;html=1;exitX=0.5;exitY=1;exitDx=0;exitDy=0;entryX=0.5;entryY=0;entryDx=0;entryDy=0;" edge="1" parent="1" source="kLhIFlbgZyPSCjnqe6_J-16" target="kLhIFlbgZyPSCjnqe6_J-19">
          <mxGeometry relative="1" as="geometry" />
        </mxCell>
        <mxCell id="kLhIFlbgZyPSCjnqe6_J-16" value="" style="rounded=0;whiteSpace=wrap;html=1;" vertex="1" parent="1">
          <mxGeometry x="360" y="130" width="180" height="90" as="geometry" />
        </mxCell>
        <mxCell id="kLhIFlbgZyPSCjnqe6_J-17" value="&lt;div&gt;closest_distance = ?&lt;span style=&quot;background-color: transparent; color: light-dark(rgb(0, 0, 0), rgb(255, 255, 255));&quot;&gt;closest_angle = 0&amp;nbsp;&amp;nbsp;&lt;/span&gt;&lt;/div&gt;&lt;div&gt;rotation_sonar_on_cross = 1&amp;nbsp;&amp;nbsp;&lt;/div&gt;&lt;div&gt;print_sonar_data()&lt;/div&gt;" style="text;html=1;align=center;verticalAlign=middle;whiteSpace=wrap;rounded=0;" vertex="1" parent="1">
          <mxGeometry x="355" y="130" width="180" height="85" as="geometry" />
        </mxCell>
        <mxCell id="kLhIFlbgZyPSCjnqe6_J-18" value="" style="rounded=1;whiteSpace=wrap;html=1;" vertex="1" parent="1">
          <mxGeometry x="425.5" y="280" width="49" height="20" as="geometry" />
        </mxCell>
        <mxCell id="kLhIFlbgZyPSCjnqe6_J-19" value="End" style="text;html=1;align=center;verticalAlign=middle;whiteSpace=wrap;rounded=0;" vertex="1" parent="1">
          <mxGeometry x="420" y="280" width="60" height="25" as="geometry" />
        </mxCell>
      </root>
    </mxGraphModel>
  </diagram>
</mxfile>
